<svg width="160" height="110" viewBox="250 443 165 110" fill="none" xmlns="http://www.w3.org/2000/svg">
<path d="M366.025 445.917L324.848 445.759C329.116 449.711 330.681 453.038 335.043 464.292H364.746C378.981 463.963 408.16 471.366 411.001 503.613C411.744 497.609 411.001 493.101 410.875 487.212C406.2 456.955 376.827 445.917 366.025 445.917Z" fill="url(#paint0_linear_icon)" stroke="black" stroke-width="0.997846"/>
<path d="M375.486 546.087C360.391 547.24 356.058 537.592 352.171 528.146H365.305C400.633 521.943 400.41 469.257 365.305 464.237C379.539 463.908 408.132 470.955 410.973 503.201C409.949 522.131 394.438 541.934 375.486 546.087Z" fill="url(#paint1_linear_icon)"/>
<path d="M352.171 528.146C356.058 537.592 360.391 547.24 375.486 546.087C394.438 541.934 409.949 522.131 410.973 503.201C408.132 470.955 379.539 463.908 365.305 464.237C400.41 469.257 400.633 521.943 365.305 528.146M352.171 528.146C352.171 528.146 359.96 528.146 365.305 528.146M352.171 528.146H365.305" stroke="black" stroke-width="1.01821"/>
<path d="M375.235 546.145C360.14 547.298 355.807 537.65 351.92 528.204L345.69 513.228H321.19L329.33 534.884C331.359 538.941 337.392 546.581 345.69 547.134C353.91 547.197 363.763 547.16 367.662 547.134C369.32 547.028 373.155 546.682 375.235 546.145Z" fill="url(#paint2_linear_icon)" stroke="black" stroke-width="1.01821"/>
<path fill-rule="evenodd" clip-rule="evenodd" d="M261.981 515.661C261.98 515.662 261.981 515.661 261.981 515.661C261.464 516.433 260.965 517.18 260.477 517.891C262.645 514.364 264.806 511.286 266.984 508.6C265.073 511.038 263.455 513.457 261.981 515.661ZM266.984 508.6C270.807 503.722 275.802 498.769 283.166 495.303C277.455 498.028 272.17 502.204 266.984 508.6ZM294.462 491.706C290.477 492.462 286.739 493.598 283.166 495.303C286.431 493.766 290.162 492.522 294.462 491.706Z" fill="url(#paint3_linear_icon)"/>
<path fill-rule="evenodd" clip-rule="evenodd" d="M261.981 515.661C261.98 515.662 261.981 515.661 261.981 515.661C261.464 516.433 260.965 517.18 260.477 517.891C262.645 514.364 264.806 511.286 266.984 508.6C265.073 511.038 263.455 513.457 261.981 515.661ZM266.984 508.6C270.807 503.722 275.802 498.769 283.166 495.303C277.455 498.028 272.17 502.204 266.984 508.6ZM294.462 491.706C290.477 492.462 286.739 493.598 283.166 495.303C286.431 493.766 290.162 492.522 294.462 491.706Z" fill="url(#paint4_linear_icon)"/>
<path fill-rule="evenodd" clip-rule="evenodd" d="M261.981 515.661C261.98 515.662 261.981 515.661 261.981 515.661C261.464 516.433 260.965 517.18 260.477 517.891C262.645 514.364 264.806 511.286 266.984 508.6C265.073 511.038 263.455 513.457 261.981 515.661ZM266.984 508.6C270.807 503.722 275.802 498.769 283.166 495.303C277.455 498.028 272.17 502.204 266.984 508.6ZM294.462 491.706C290.477 492.462 286.739 493.598 283.166 495.303C286.431 493.766 290.162 492.522 294.462 491.706Z" fill="url(#paint5_linear_icon)"/>
<path fill-rule="evenodd" clip-rule="evenodd" d="M261.981 515.661C261.98 515.662 261.981 515.661 261.981 515.661C261.464 516.433 260.965 517.18 260.477 517.891C262.645 514.364 264.806 511.286 266.984 508.6C265.073 511.038 263.455 513.457 261.981 515.661ZM266.984 508.6C270.807 503.722 275.802 498.769 283.166 495.303C277.455 498.028 272.17 502.204 266.984 508.6ZM294.462 491.706C290.477 492.462 286.739 493.598 283.166 495.303C286.431 493.766 290.162 492.522 294.462 491.706Z" fill="black" fill-opacity="0.2"/>
<path d="M344.412 509.434L337.299 490.149C331.946 490.262 326.963 490.248 322.295 490.235C311.574 490.204 302.515 490.178 294.462 491.706C290.162 492.522 286.431 493.766 283.166 495.303C277.455 498.028 272.17 502.204 266.984 508.6C265.073 511.038 263.455 513.457 261.981 515.661C261.464 516.433 260.965 517.18 260.477 517.891L254.629 532.354C253.865 535.963 254.076 543.814 261.031 546.343C269.724 549.504 274.704 543.419 275.573 541.443C276.268 539.862 280.499 528.771 282.528 523.423C284.557 518.523 292.154 508.865 306.317 509.434L344.412 509.434Z" fill="url(#paint6_linear_icon)"/>
<path d="M344.412 509.434L337.299 490.149C331.946 490.262 326.963 490.248 322.295 490.235C311.574 490.204 302.515 490.178 294.462 491.706C290.162 492.522 286.431 493.766 283.166 495.303C277.455 498.028 272.17 502.204 266.984 508.6C265.073 511.038 263.455 513.457 261.981 515.661C261.464 516.433 260.965 517.18 260.477 517.891L254.629 532.354C253.865 535.963 254.076 543.814 261.031 546.343C269.724 549.504 274.704 543.419 275.573 541.443C276.268 539.862 280.499 528.771 282.528 523.423C284.557 518.523 292.154 508.865 306.317 509.434L344.412 509.434Z" fill="url(#paint7_linear_icon)"/>
<path d="M344.412 509.434L337.299 490.149C331.946 490.262 326.963 490.248 322.295 490.235C311.574 490.204 302.515 490.178 294.462 491.706C290.162 492.522 286.431 493.766 283.166 495.303C277.455 498.028 272.17 502.204 266.984 508.6C265.073 511.038 263.455 513.457 261.981 515.661C261.464 516.433 260.965 517.18 260.477 517.891L254.629 532.354C253.865 535.963 254.076 543.814 261.031 546.343C269.724 549.504 274.704 543.419 275.573 541.443C276.268 539.862 280.499 528.771 282.528 523.423C284.557 518.523 292.154 508.865 306.317 509.434L344.412 509.434Z" fill="url(#paint8_linear_icon)"/>
<path d="M344.412 509.434L337.299 490.149C331.946 490.262 326.963 490.248 322.295 490.235C311.574 490.204 302.515 490.178 294.462 491.706C290.162 492.522 286.431 493.766 283.166 495.303C277.455 498.028 272.17 502.204 266.984 508.6C265.073 511.038 263.455 513.457 261.981 515.661C261.464 516.433 260.965 517.18 260.477 517.891L254.629 532.354C253.865 535.963 254.076 543.814 261.031 546.343C269.724 549.504 274.704 543.419 275.573 541.443C276.268 539.862 280.499 528.771 282.528 523.423C284.557 518.523 292.154 508.865 306.317 509.434L344.412 509.434Z" fill="black" fill-opacity="0.2"/>
<path d="M261.981 515.661C261.98 515.662 261.981 515.661 261.981 515.661ZM261.981 515.661C261.464 516.433 260.965 517.18 260.477 517.891M261.981 515.661C263.455 513.457 265.073 511.038 266.984 508.6M260.477 517.891C262.645 514.364 264.806 511.286 266.984 508.6M260.477 517.891L254.629 532.354C253.865 535.963 254.076 543.814 261.031 546.343C269.724 549.504 274.704 543.419 275.573 541.443C276.268 539.862 280.499 528.771 282.528 523.423C284.557 518.523 292.154 508.865 306.317 509.434M266.984 508.6C270.807 503.722 275.802 498.769 283.166 495.303M266.984 508.6C272.17 502.204 277.455 498.028 283.166 495.303M283.166 495.303C286.739 493.598 290.477 492.462 294.462 491.706M283.166 495.303C286.431 493.766 290.162 492.522 294.462 491.706M294.462 491.706C302.515 490.178 311.574 490.204 322.295 490.235C326.963 490.248 331.946 490.262 337.299 490.149L344.412 509.434M344.412 509.434L306.317 509.434M344.412 509.434C337.668 509.434 320.607 509.434 306.317 509.434" stroke="black" stroke-width="1.01821"/>
<path d="M296.689 445.929C292.642 446.182 288.469 451.093 286.889 453.516C291.868 447.352 297.479 448.695 300.641 454.307C301.642 456.085 303.388 460.12 305.337 464.897C308.31 472.182 311.756 481.191 313.761 486.553H336.997C333.493 478.07 325.821 459.586 323.166 453.516C317.791 446.372 312.127 445.165 309.967 445.455C307.227 445.507 300.736 445.676 296.689 445.929Z" fill="url(#paint9_linear_icon)"/>
<path d="M296.689 445.929C292.642 446.182 288.469 451.093 286.889 453.516C291.868 447.352 297.479 448.695 300.641 454.307C301.642 456.085 303.388 460.12 305.337 464.897C308.31 472.182 311.756 481.191 313.761 486.553H336.997C333.493 478.07 325.821 459.586 323.166 453.516C317.791 446.372 312.127 445.165 309.967 445.455C307.227 445.507 300.736 445.676 296.689 445.929Z" fill="url(#paint10_linear_icon)"/>
<path d="M296.689 445.929C292.642 446.182 288.469 451.093 286.889 453.516C291.868 447.352 297.479 448.695 300.641 454.307C301.642 456.085 303.388 460.12 305.337 464.897C308.31 472.182 311.756 481.191 313.761 486.553H336.997C333.493 478.07 325.821 459.586 323.166 453.516C317.791 446.372 312.127 445.165 309.967 445.455C307.227 445.507 300.736 445.676 296.689 445.929Z" fill="url(#paint11_linear_icon)"/>
<path d="M296.689 445.929C292.642 446.182 288.469 451.093 286.889 453.516C291.868 447.352 297.479 448.695 300.641 454.307C301.642 456.085 303.388 460.12 305.337 464.897C308.31 472.182 311.756 481.191 313.761 486.553H336.997C333.493 478.07 325.821 459.586 323.166 453.516C317.791 446.372 312.127 445.165 309.967 445.455C307.227 445.507 300.736 445.676 296.689 445.929Z" stroke="black" stroke-width="1.01821"/>
<path fill-rule="evenodd" clip-rule="evenodd" d="M262.152 515.293C262.152 515.293 262.153 515.293 262.152 515.293C261.636 516.065 261.137 516.811 260.649 517.522C262.817 513.996 264.977 510.918 267.156 508.231C265.245 510.669 263.627 513.088 262.152 515.293ZM267.156 508.231C270.979 503.354 275.974 498.401 283.338 494.934C277.627 497.659 272.342 501.836 267.156 508.231ZM294.634 491.337C290.649 492.093 286.91 493.23 283.338 494.934C286.603 493.398 290.333 492.153 294.634 491.337Z" fill="url(#paint12_linear_icon)"/>
<path fill-rule="evenodd" clip-rule="evenodd" d="M262.152 515.293C262.152 515.293 262.153 515.293 262.152 515.293C261.636 516.065 261.137 516.811 260.649 517.522C262.817 513.996 264.977 510.918 267.156 508.231C265.245 510.669 263.627 513.088 262.152 515.293ZM267.156 508.231C270.979 503.354 275.974 498.401 283.338 494.934C277.627 497.659 272.342 501.836 267.156 508.231ZM294.634 491.337C290.649 492.093 286.91 493.23 283.338 494.934C286.603 493.398 290.333 492.153 294.634 491.337Z" fill="black" fill-opacity="0.2"/>
<path d="M260.649 517.522C262.817 513.996 264.977 510.918 267.156 508.231C270.979 503.354 275.974 498.401 283.338 494.934C286.91 493.23 290.649 492.093 294.634 491.337L305.179 464.964C303.23 460.187 301.484 456.152 300.483 454.374C297.321 448.762 291.71 447.419 286.731 453.583L260.649 517.522Z" fill="url(#paint13_linear_icon)"/>
<path d="M260.649 517.522C262.817 513.996 264.977 510.918 267.156 508.231C270.979 503.354 275.974 498.401 283.338 494.934C286.91 493.23 290.649 492.093 294.634 491.337L305.179 464.964C303.23 460.187 301.484 456.152 300.483 454.374C297.321 448.762 291.71 447.419 286.731 453.583L260.649 517.522Z" fill="black" fill-opacity="0.2"/>
<path d="M262.152 515.293C262.152 515.293 262.153 515.293 262.152 515.293ZM262.152 515.293C261.636 516.065 261.137 516.811 260.649 517.522M262.152 515.293C263.627 513.088 265.245 510.669 267.156 508.231M260.649 517.522C262.817 513.996 264.977 510.918 267.156 508.231M260.649 517.522L286.731 453.583C291.71 447.419 297.321 448.762 300.483 454.374C301.484 456.152 303.23 460.187 305.179 464.964L294.634 491.337M267.156 508.231C270.979 503.354 275.974 498.401 283.338 494.934M267.156 508.231C272.342 501.836 277.627 497.659 283.338 494.934M283.338 494.934C286.91 493.23 290.649 492.093 294.634 491.337M283.338 494.934C286.603 493.398 290.333 492.153 294.634 491.337" stroke="black" stroke-width="1.01821"/>
<defs>
<linearGradient id="paint0_linear_icon" x1="327.772" y1="445.759" x2="405.937" y2="485.435" gradientUnits="userSpaceOnUse">
<stop stop-color="#894E9F"/>
<stop offset="1" stop-color="#FF44C7"/>
</linearGradient>
<linearGradient id="paint1_linear_icon" x1="381.572" y1="464.227" x2="381.572" y2="546.181" gradientUnits="userSpaceOnUse">
<stop stop-color="#7438B2"/>
<stop offset="1" stop-color="#64A2BB"/>
</linearGradient>
<linearGradient id="paint2_linear_icon" x1="332.017" y1="507.854" x2="360.312" y2="547.213" gradientUnits="userSpaceOnUse">
<stop stop-color="#8C4EA0"/>
<stop offset="0.9999" stop-color="#FF5CCE"/>
</linearGradient>
<linearGradient id="paint3_linear_icon" x1="260.254" y1="547.174" x2="339.605" y2="468.613" gradientUnits="userSpaceOnUse">
<stop stop-color="#4C57C6"/>
<stop offset="0.658654" stop-color="#83D8EE"/>
<stop offset="0.953555" stop-color="white" stop-opacity="0"/>
</linearGradient>
<linearGradient id="paint4_linear_icon" x1="406.863" y1="522.199" x2="371.298" y2="516.508" gradientUnits="userSpaceOnUse">
<stop stop-color="#4C57C6"/>
<stop offset="0.658654" stop-color="#83D8EE"/>
<stop offset="0.953555" stop-color="white" stop-opacity="0"/>
</linearGradient>
<linearGradient id="paint5_linear_icon" x1="404.887" y1="459.05" x2="381.177" y2="511.924" gradientUnits="userSpaceOnUse">
<stop stop-color="#EEA7D3"/>
<stop offset="0.423224" stop-color="#A657C4"/>
<stop offset="1" stop-color="#AB57C4" stop-opacity="0"/>
</linearGradient>
<linearGradient id="paint6_linear_icon" x1="260.254" y1="547.174" x2="339.605" y2="468.613" gradientUnits="userSpaceOnUse">
<stop stop-color="#4C57C6"/>
<stop offset="0.658654" stop-color="#83D8EE"/>
<stop offset="0.953555" stop-color="white" stop-opacity="0"/>
</linearGradient>
<linearGradient id="paint7_linear_icon" x1="406.863" y1="522.199" x2="371.298" y2="516.508" gradientUnits="userSpaceOnUse">
<stop stop-color="#4C57C6"/>
<stop offset="0.658654" stop-color="#83D8EE"/>
<stop offset="0.953555" stop-color="white" stop-opacity="0"/>
</linearGradient>
<linearGradient id="paint8_linear_icon" x1="404.887" y1="459.05" x2="381.177" y2="511.924" gradientUnits="userSpaceOnUse">
<stop stop-color="#EEA7D3"/>
<stop offset="0.423224" stop-color="#A657C4"/>
<stop offset="1" stop-color="#AB57C4" stop-opacity="0"/>
</linearGradient>
<linearGradient id="paint9_linear_icon" x1="260.584" y1="546.738" x2="339.935" y2="468.178" gradientUnits="userSpaceOnUse">
<stop stop-color="#4C57C6"/>
<stop offset="0.658654" stop-color="#83D8EE"/>
<stop offset="0.953555" stop-color="white" stop-opacity="0"/>
</linearGradient>
<linearGradient id="paint10_linear_icon" x1="407.193" y1="521.763" x2="371.628" y2="516.073" gradientUnits="userSpaceOnUse">
<stop stop-color="#4C57C6"/>
<stop offset="0.658654" stop-color="#83D8EE"/>
<stop offset="0.953555" stop-color="white" stop-opacity="0"/>
</linearGradient>
<linearGradient id="paint11_linear_icon" x1="317.159" y1="445.416" x2="336.997" y2="486.514" gradientUnits="userSpaceOnUse">
<stop stop-color="#62D8F6"/>
<stop offset="1" stop-color="#A657C4"/>
</linearGradient>
<linearGradient id="paint12_linear_icon" x1="268.395" y1="506.431" x2="301.826" y2="456.56" gradientUnits="userSpaceOnUse">
<stop offset="0.233015" stop-color="#62D8F6"/>
<stop offset="1" stop-color="#4C57C6"/>
</linearGradient>
<linearGradient id="paint13_linear_icon" x1="268.395" y1="506.431" x2="301.826" y2="456.56" gradientUnits="userSpaceOnUse">
<stop offset="0.233015" stop-color="#62D8F6"/>
<stop offset="1" stop-color="#4C57C6"/>
</linearGradient>
</defs>
</svg>